<?xml version="1.0" standalone="no"?>
<!DOCTYPE svg PUBLIC "-//W3C//DTD SVG 20010904//EN"
 "http://www.w3.org/TR/2001/REC-SVG-20010904/DTD/svg10.dtd">
<svg version="1.0" xmlns="http://www.w3.org/2000/svg"
 width="500.000000pt" height="500.000000pt" viewBox="0 0 500.000000 500.000000"
 preserveAspectRatio="xMidYMid meet">

<g transform="translate(0.000000,500.000000) scale(0.100000,-0.100000)"
fill="#000000" stroke="none">
<path d="M2407 3126 c-202 -72 -261 -329 -111 -480 53 -53 110 -76 212 -86
133 -13 194 -40 278 -124 83 -83 114 -149 122 -263 9 -141 -60 -283 -179 -362
-81 -54 -125 -66 -239 -65 -73 0 -105 5 -140 21 -25 11 -186 102 -359 202
l-314 182 -109 -3 -109 -3 393 -226 c450 -260 446 -258 513 -275 69 -19 209
-18 276 2 177 52 311 186 363 363 9 32 16 91 16 141 0 146 -50 269 -151 369
-89 89 -226 151 -334 151 -165 0 -266 152 -183 276 37 53 84 79 147 78 52 0
67 -6 207 -87 l150 -88 109 3 109 3 -224 130 c-124 71 -241 135 -260 142 -46
16 -135 16 -183 -1z"/>
</g>
</svg>
