<?xml version="1.0" standalone="no"?>
<!DOCTYPE svg PUBLIC "-//W3C//DTD SVG 20010904//EN"
 "http://www.w3.org/TR/2001/REC-SVG-20010904/DTD/svg10.dtd">
<svg version="1.0" xmlns="http://www.w3.org/2000/svg"
 width="1000.000000pt" height="1000.000000pt" viewBox="0 0 1000.000000 1000.000000"
 preserveAspectRatio="xMidYMid meet">

<g transform="translate(0.000000,1000.000000) scale(0.100000,-0.100000)"
fill="#000000" stroke="none">
<path d="M0 5000 l0 -5000 5000 0 5000 0 0 5000 0 5000 -5000 0 -5000 0 0
-5000z m5472 1735 c195 -29 306 -82 428 -205 126 -126 184 -256 197 -444 9
-132 -33 -308 -108 -458 l-29 -58 -170 0 -170 0 27 43 c46 73 81 161 99 247
40 197 -38 375 -195 448 -49 23 -69 27 -156 27 -171 0 -278 -52 -331 -162 -26
-52 -29 -69 -29 -153 0 -82 5 -109 34 -194 40 -115 138 -317 313 -646 215
-403 254 -487 303 -655 79 -271 69 -539 -28 -747 -108 -231 -348 -419 -635
-495 -86 -23 -116 -26 -267 -26 -143 0 -183 3 -250 21 -234 63 -413 213 -520
436 -64 135 -79 205 -78 371 0 166 19 251 87 390 103 214 310 417 584 571 45
25 82 48 82 50 0 3 -24 53 -54 112 -131 261 -226 517 -247 664 -37 252 85 513
319 687 138 101 275 153 482 185 62 9 224 5 312 -9z"/>
<path d="M4729 4739 c-222 -132 -370 -309 -409 -490 -18 -83 -8 -240 19 -312
43 -109 140 -205 251 -247 69 -27 197 -29 274 -5 126 40 205 144 228 299 25
176 -34 355 -244 744 l-34 62 -85 -51z"/>
</g>
</svg>
